<svg xmlns="http://www.w3.org/2000/svg" xmlns:xlink="http://www.w3.org/1999/xlink" viewBox="0 0 78.13 78.13"><defs><style>.cls-1{fill:none;}.cls-2{clip-path:url(#clip-path);}.cls-3{fill:#895858;}</style><clipPath id="clip-path" transform="translate(0 0)"><rect class="cls-1" width="78.13" height="78.13"/></clipPath></defs><g id="Layer_2" data-name="Layer 2"><g id="Lag_1" data-name="Lag 1"><g id="xd"><g class="cls-2"><path class="cls-3" d="M57.36,34.15a8,8,0,0,0-3.68.87,7.39,7.39,0,0,0-2.77,2.47,7.61,7.61,0,0,0-1.07,4.24,9.55,9.55,0,0,0,.55,3.44,6.61,6.61,0,0,0,1.47,2.37,5.53,5.53,0,0,0,2.21,1.34,8.25,8.25,0,0,0,2.7.43c.49,0,.95,0,1.37-.06a2.9,2.9,0,0,0,1.17-.17V34.39a8.55,8.55,0,0,0-.88-.17C58.07,34.19,57.72,34.15,57.36,34.15Z" transform="translate(0 0)"/><path class="cls-3" d="M72.42,0H5.7A5.78,5.78,0,0,0,0,5.85V72.28a5.78,5.78,0,0,0,5.7,5.85H72.42a5.78,5.78,0,0,0,5.71-5.85V5.85A5.78,5.78,0,0,0,72.42,0ZM41.8,55c0,.13-.17,0-.36.07H34c-.52,0-.87,0-1.1-.37-.69-1.4-1.4-2.77-2.09-4.18s-1.43-2.77-2.21-4.2S27,43.44,26.24,42h-.07c-.68,1.43-1.43,2.87-2.18,4.3s-1.5,2.88-2.21,4.28-1.5,2.84-2.25,4.2c-.13.34-.39.37-.75.37H11.62c-.13,0-.23.07-.23-.1a.61.61,0,0,1,0-.19.45.45,0,0,1,.07-.18l10.12-17L11.72,20.5c-.1-.13-.13-.27-.07-.33a.33.33,0,0,1,.15-.11A.38.38,0,0,1,12,20h7.39a2.22,2.22,0,0,1,.45.07.86.86,0,0,1,.33.3c.62,1.44,1.33,2.87,2.08,4.31s1.53,2.83,2.35,4.24,1.49,2.8,2.18,4.24h.06q1-2.2,2.12-4.31t2.21-4.21c.75-1.4,1.47-2.83,2.18-4.2a.47.47,0,0,1,.62-.4h7a.27.27,0,0,1,.11.05.3.3,0,0,1,.08.08.37.37,0,0,1,0,.11s0,.17-.1.23L31.32,37.06,41.73,54.59A.61.61,0,0,1,41.8,55Zm24.89-1.52a.59.59,0,0,1-.25.22,24.8,24.8,0,0,1-5.31,1.6,29,29,0,0,1-5,.47,15.88,15.88,0,0,1-7-1.51,11.44,11.44,0,0,1-4.91-4.54,14.66,14.66,0,0,1-1.79-7.61,13.85,13.85,0,0,1,1.79-7,13.61,13.61,0,0,1,5.17-5.18,16.34,16.34,0,0,1,8.24-1.94,5.17,5.17,0,0,1,.68,0c.29,0,.62,0,1,.07V17.49c0-.23.1-.36.33-.36h6.6a.3.3,0,0,1,.21.05.32.32,0,0,1,.12.18V49.21c0,.6,0,1.27.06,2s.1,1.36.13,1.93A.58.58,0,0,1,66.69,53.47Z" transform="translate(0 0)"/></g></g></g></g></svg>