<svg xmlns="http://www.w3.org/2000/svg" xmlns:xlink="http://www.w3.org/1999/xlink" viewBox="0 0 78.13 78.13"><defs><style>.cls-1{fill:none;}.cls-2{clip-path:url(#clip-path);}.cls-3{fill:#895858;}</style><clipPath id="clip-path" transform="translate(0 0)"><rect class="cls-1" width="78.13" height="78.13"/></clipPath></defs><g id="Layer_2" data-name="Layer 2"><g id="Lag_1" data-name="Lag 1"><g id="as"><g class="cls-2"><path class="cls-3" d="M58.35,34.66a4.35,4.35,0,0,0-2.62-.81,4.52,4.52,0,0,0-2.53.62,4.69,4.69,0,0,0-1.8,1.92,7.23,7.23,0,0,0-.72,2.41h6.87c.85,0,1.47,0,1.86,0a1.57,1.57,0,0,0,.75-.26v-.34a3.91,3.91,0,0,0-.2-1.23A4.42,4.42,0,0,0,58.35,34.66Z" transform="translate(0 0)"/><path class="cls-3" d="M72.42,0H5.7A5.78,5.78,0,0,0,0,5.85V72.28a5.78,5.78,0,0,0,5.7,5.85H72.42a5.78,5.78,0,0,0,5.71-5.85V5.85A5.78,5.78,0,0,0,72.42,0ZM41.37,55.12h-6.8a.51.51,0,0,1-.32-.08.5.5,0,0,1-.2-.29l-2.67-8H19.27L16.8,54.62a.57.57,0,0,1-.62.47H10.06c-.36,0-.46-.2-.36-.6L20.18,23.67c.1-.33.2-.63.33-1a12.24,12.24,0,0,0,.19-2.17A.33.33,0,0,1,21,20.1h8.43c.23,0,.4.1.43.27L41.7,54.59C41.8,55,41.7,55.12,41.37,55.12ZM66.93,41.8c0,.63-.1,1.1-.13,1.4a.51.51,0,0,1-.15.3.52.52,0,0,1-.31.14c-.19,0-.55,0-1.07.06a13.3,13.3,0,0,1-1.89.1c-.75,0-1.53-.13-2.38-.13H50.68a7.6,7.6,0,0,0,1,3,5.2,5.2,0,0,0,2.38,2,9.85,9.85,0,0,0,4.17.84,18.31,18.31,0,0,0,3.38-.37,11.72,11.72,0,0,0,2.9-.77c.16-.13.26-.06.26.27v5.11a1.76,1.76,0,0,1-.07.4.69.69,0,0,1-.22.23,13.84,13.84,0,0,1-3.26,1,21.69,21.69,0,0,1-4.62.4,15,15,0,0,1-6.25-1.17,11,11,0,0,1-4.1-3.17A12.41,12.41,0,0,1,44,47a17.73,17.73,0,0,1,.13-10.18,13.71,13.71,0,0,1,2.44-4.57,11.88,11.88,0,0,1,3.94-3.18,12.13,12.13,0,0,1,5.44-1,11.53,11.53,0,0,1,5,1,9,9,0,0,1,3.42,2.67,12.07,12.07,0,0,1,2,3.81A13.1,13.1,0,0,1,67,39.66C67,40.47,67,41.17,66.93,41.8Z" transform="translate(0 0)"/><path class="cls-3" d="M27.8,34.82c-.29-1-.62-2-.94-3.07s-.62-2-.88-3-.49-1.8-.72-2.6H25.2c-.3,1.45-.67,2.89-1.11,4.3-.49,1.6-1,3.27-1.5,4.94s-.94,3.28-1.43,4.68h8.27c-.2-.7-.46-1.54-.75-2.41S28.09,35.82,27.8,34.82Z" transform="translate(0 0)"/></g></g></g></g></svg>