<svg xmlns="http://www.w3.org/2000/svg" xmlns:xlink="http://www.w3.org/1999/xlink" viewBox="0 0 78.13 78.13"><defs><style>.cls-1{fill:none;}.cls-2{clip-path:url(#clip-path);}.cls-3{fill:#895858;}</style><clipPath id="clip-path" transform="translate(-0.15 -0.99)"><rect class="cls-1" width="78.13" height="78.13"/></clipPath></defs><g id="Layer_2" data-name="Layer 2"><g id="Lag_1" data-name="Lag 1"><g id="ai"><g class="cls-2"><path class="cls-3" d="M34.28,34.82c-.3-1-.62-2-1-3.07s-.61-2-.88-3-.48-1.8-.71-2.6h-.07a42.33,42.33,0,0,1-1.1,4.3c-.49,1.6-1,3.27-1.5,4.94s-.94,3.28-1.43,4.68h8.27c-.2-.7-.46-1.54-.75-2.41S34.57,35.82,34.28,34.82Z" transform="translate(-0.15 -0.99)"/><path class="cls-3" d="M72.57,1H5.85A5.77,5.77,0,0,0,.15,6.83V73.26a5.78,5.78,0,0,0,5.7,5.85H72.57a5.78,5.78,0,0,0,5.7-5.85V6.83A5.77,5.77,0,0,0,72.57,1ZM48,56.17H41.19a.41.41,0,0,1-.32-.08.51.51,0,0,1-.2-.28l-2.67-8H25.89l-2.47,7.85a.59.59,0,0,1-.22.35.52.52,0,0,1-.4.11H16.68c-.36,0-.45-.2-.36-.6L26.81,24.62c.09-.33.19-.7.32-1.1a12.08,12.08,0,0,0,.2-2.17.31.31,0,0,1,.06-.23.35.35,0,0,1,.2-.14H36c.26,0,.39.1.42.27L48.32,55.64C48.42,56,48.32,56.17,48,56.17Zm11.07-.5c0,.37-.13.54-.43.54H52.26a.64.64,0,0,1-.2,0,.66.66,0,0,1-.17-.12.52.52,0,0,1-.1-.18.5.5,0,0,1,0-.21V30c0-.34.13-.47.43-.47h6.44c.3,0,.43.17.43.47Zm.18-31.56a4.16,4.16,0,0,1-.87,1.42,3.7,3.7,0,0,1-1.36.91,3.64,3.64,0,0,1-1.6.25,3.79,3.79,0,0,1-1.56-.28,4.1,4.1,0,0,1-1.34-.88,4.42,4.42,0,0,1-1.1-3.08,3.93,3.93,0,0,1,1.17-3,4.14,4.14,0,0,1,2.89-1.17,3.86,3.86,0,0,1,3,1.17,4.3,4.3,0,0,1,1.07,3A4.26,4.26,0,0,1,59.25,24.11Z" transform="translate(-0.15 -0.99)"/></g></g></g></g></svg>