<svg xmlns="http://www.w3.org/2000/svg" viewBox="0 0 78.13 78.13"><defs><style>.cls-1{fill:#895858;}</style></defs><g id="Layer_2" data-name="Layer 2"><g id="Lag_1" data-name="Lag 1"><polygon class="cls-1" points="45.82 41.3 45.14 48.41 39 50.06 32.89 48.41 32.49 44.05 27.04 44.05 27.72 52.71 39 55.82 39.12 55.82 39.12 55.79 50.31 52.71 51.86 35.76 31.8 35.76 31.34 30.12 52.33 30.12 52.83 24.67 25.29 24.67 26.76 41.3 45.82 41.3"/><path class="cls-1" d="M72.64,0H5.48A5.48,5.48,0,0,0,0,5.48V72.64a5.48,5.48,0,0,0,5.48,5.49H72.64a5.49,5.49,0,0,0,5.49-5.49V5.48A5.48,5.48,0,0,0,72.64,0ZM57,60.31l-18,5-17.88-5-4-44.8H61Z"/></g></g></svg>