<svg xmlns="http://www.w3.org/2000/svg" viewBox="0 0 78.13 78.13"><defs><style>.cls-1{fill:#895858;}</style></defs><g id="Layer_2" data-name="Layer 2"><g id="Lag_1" data-name="Lag 1"><path class="cls-1" d="M33.42,60.25l-.19.56a3.83,3.83,0,0,1-.93,1.78,3.77,3.77,0,0,1-2.71.83,4,4,0,0,1-2.34-.65,7.83,7.83,0,0,1-2-2.33,2.94,2.94,0,0,0-.41-.66s-1,.6-2.95,1.78L19,63.33l.28.37a10.16,10.16,0,0,0,6.25,5.51A13.14,13.14,0,0,0,34.82,69q4.93-2.06,5.69-8.12.09-.66.09-13.54V34.49H33.41V60.25ZM49.28,37a9,9,0,0,0-2.61,6.63q0,5.88,5.41,9.14a30.93,30.93,0,0,0,4.48,2.15q3.93,1.68,4.86,2.71a3,3,0,0,1,.65,3.64,4.48,4.48,0,0,1-.65.84,5.32,5.32,0,0,1-3.92,1.4,7.75,7.75,0,0,1-6.72-3.74,3.23,3.23,0,0,0-.42-.65s-1,.55-2.85,1.63-2.83,1.67-2.89,1.73,0,.28.28.65q3.26,5.61,10.36,6.54a14.57,14.57,0,0,0,4.66,0,11.76,11.76,0,0,0,6.91-3,9.17,9.17,0,0,0,2.71-6.91,10.21,10.21,0,0,0-1-4.66,7.7,7.7,0,0,0-1.68-2.43q-2.14-2.14-7.56-4.48-3.83-1.59-4.67-2.52a3.16,3.16,0,0,1-.84-2.43,3.11,3.11,0,0,1,.75-1.86,3.76,3.76,0,0,1,2.8-1,5.42,5.42,0,0,1,4.15,2.43c.22.37.36.56.42.56s1.08-.67,2.85-1.82,2.66-1.74,2.66-1.78-.19-.35-.56-1a10.72,10.72,0,0,0-2.89-2.89,10.31,10.31,0,0,0-5.51-1.77,15.1,15.1,0,0,0-2.33,0A10.22,10.22,0,0,0,49.28,37ZM78.13,72.64a5.49,5.49,0,0,1-5.49,5.49H5.48A5.48,5.48,0,0,1,0,72.64V5.48A5.48,5.48,0,0,1,5.48,0H72.64a5.48,5.48,0,0,1,5.49,5.48Z"/></g></g></svg>