<svg xmlns="http://www.w3.org/2000/svg" xmlns:xlink="http://www.w3.org/1999/xlink" viewBox="0 0 78.13 78.13"><defs><style>.cls-1{fill:none;}.cls-2{clip-path:url(#clip-path);}.cls-3{fill:#895858;}</style><clipPath id="clip-path" transform="translate(0 0)"><rect class="cls-1" width="78.13" height="78.13"/></clipPath></defs><g id="Layer_2" data-name="Layer 2"><g id="Lag_1" data-name="Lag 1"><g id="ps"><g class="cls-2"><path class="cls-3" d="M72.42,0H5.7A5.78,5.78,0,0,0,0,5.85V72.28a5.78,5.78,0,0,0,5.7,5.85H72.42a5.78,5.78,0,0,0,5.71-5.85V5.85A5.78,5.78,0,0,0,72.42,0ZM40.23,38.9A11.19,11.19,0,0,1,35,43a20.68,20.68,0,0,1-7.32,1.13c-.78,0-1.3,0-1.63,0s-.78,0-1.4,0V54.75a.32.32,0,0,1,0,.17.51.51,0,0,1-.07.15.38.38,0,0,1-.12.1.3.3,0,0,1-.16,0H18c-.26,0-.39-.13-.39-.43V20.43c0-.23.1-.36.32-.36.56,0,1.08,0,1.83,0s1.59,0,2.47-.06,1.82,0,2.83-.07,2,0,3,0a18.75,18.75,0,0,1,6.71,1,11.55,11.55,0,0,1,4.36,2.74,10.76,10.76,0,0,1,2.38,3.8,13.12,13.12,0,0,1,.75,4.34A12.11,12.11,0,0,1,40.23,38.9Zm23.08,13a8.05,8.05,0,0,1-3.64,3,14.45,14.45,0,0,1-5.89,1.07,22,22,0,0,1-4.43-.43A12.51,12.51,0,0,1,46,54.42a.68.68,0,0,1-.27-.26.6.6,0,0,1-.09-.37V48a.47.47,0,0,1,0-.17.32.32,0,0,1,.1-.13.28.28,0,0,1,.15,0,.21.21,0,0,1,.14.07,13.9,13.9,0,0,0,4,1.64,15.1,15.1,0,0,0,3.84.5,6,6,0,0,0,2.7-.47,1.47,1.47,0,0,0,.64-.57,1.54,1.54,0,0,0,.24-.83,1.79,1.79,0,0,0-.78-1.34,13.93,13.93,0,0,0-3.19-1.57A19.7,19.7,0,0,1,49,42.67a8.69,8.69,0,0,1-2.48-2.84,7.37,7.37,0,0,1-.74-3.4,7.91,7.91,0,0,1,1.1-4,8.19,8.19,0,0,1,3.42-3.08A12.37,12.37,0,0,1,56,28.15a27.36,27.36,0,0,1,4,.3,11.39,11.39,0,0,1,2.8.76.59.59,0,0,1,.32.3,1.87,1.87,0,0,1,.07.4v5.45a.37.37,0,0,1,0,.18.44.44,0,0,1-.12.15.86.86,0,0,1-.59,0,11.34,11.34,0,0,0-3.12-1.13,16.64,16.64,0,0,0-3.65-.44,6.4,6.4,0,0,0-1.95.24,1.62,1.62,0,0,0-1,.66,1.71,1.71,0,0,0-.26.9,1.49,1.49,0,0,0,.32.87,3.7,3.7,0,0,0,1.11.9c.75.4,1.53.77,2.31,1.11a23,23,0,0,1,5,2.43A7.71,7.71,0,0,1,63.84,44a7.31,7.31,0,0,1,.74,3.44A7.82,7.82,0,0,1,63.31,51.88Z" transform="translate(0 0)"/><path class="cls-3" d="M32.06,27.11a9.35,9.35,0,0,0-3.84-.67c-.84,0-1.59,0-2.21,0a7.5,7.5,0,0,0-1.34,0V37.73c.46,0,.88.06,1.27.06h1.73a11.62,11.62,0,0,0,3.74-.6,5.48,5.48,0,0,0,2.67-1.77,5.21,5.21,0,0,0,1-3.44,5.62,5.62,0,0,0-.75-3A4.76,4.76,0,0,0,32.06,27.11Z" transform="translate(0 0)"/></g></g></g></g></svg>